<?xml version="1.0" standalone="no"?><!DOCTYPE svg PUBLIC "-//W3C//DTD SVG 1.1//EN" "http://www.w3.org/Graphics/SVG/1.1/DTD/svg11.dtd"><svg t="1589888403184" class="icon" viewBox="0 0 1024 1024" version="1.1" xmlns="http://www.w3.org/2000/svg" p-id="1355" xmlns:xlink="http://www.w3.org/1999/xlink" width="16" height="16"><defs><style type="text/css"></style></defs><path d="M0 512a512 512 0 1 0 1024 0A512 512 0 1 0 0 512z" fill="#7E70D0" p-id="1356"></path><path d="M495.385 655.757a477.505 477.505 0 0 1-59.598 36.12c-66.28-33.23-168.68-113.958-219.067-199.382h90.3a12.461 12.461 0 0 0 9.752-4.154l49.845-41.357 55.264 117.57a15.712 15.712 0 0 0 20.769 6.863 16.796 16.796 0 0 0 8.307-8.307l58.153-170.125 57.973 105.109a207.69 207.69 0 0 0-16.615 15.17 180.6 180.6 0 0 0-52.555 126.42 73.504 73.504 0 0 0-1.264 15.17z m186.74-46.956a34.133 34.133 0 1 1-40.093 40.094 97.163 97.163 0 0 0-26.368-49.846l-12.461-12.461c-8.308-8.308 8.307-23.478 16.615-16.616l12.461 12.462a87.59 87.59 0 0 0 49.846 26.367zM437.232 296.003A147.008 147.008 0 0 0 186.74 399.848a158.205 158.205 0 0 0 15.351 63.751h99.51l60.862-51.29a14.81 14.81 0 0 1 20.77 1.445c1.444 1.264 1.444 2.709 2.708 4.154l47.498 100.955 56.708-165.971a14.99 14.99 0 0 1 18.963-9.753 14.087 14.087 0 0 1 8.308 6.863l73.323 132.921a190.533 190.533 0 0 1 83.076-22.213 144.48 144.48 0 0 0 13.906-62.307 146.828 146.828 0 0 0-250.491-102.4z" fill="#FFFFFF" p-id="1357"></path><path d="M787.234 752.74a160.734 160.734 0 0 1-110.708 45.691 158.747 158.747 0 0 1-110.707-45.692 153.33 153.33 0 0 1-45.511-110.707 155.677 155.677 0 0 1 156.218-156.4 158.025 158.025 0 0 1 110.708 45.692 152.065 152.065 0 0 1 45.692 110.708 158.747 158.747 0 0 1-45.692 110.707zM563.11 632.098v20.769h32.869v-20.77z m123.169-102.22h-20.77v34.675h20.77z m-20.77 225.57h20.77v-34.676h-20.77z m123.17-102.4v-20.95h-33.23v20.769z m-112.153 114.86a126.42 126.42 0 0 0 90.3-37.383 123.71 123.71 0 0 0 0-177.169 130.032 130.032 0 0 0-90.3-37.203 126.42 126.42 0 0 0-90.3 37.203 126.42 126.42 0 0 0 90.3 214.553z" fill="#FFFFFF" p-id="1358"></path></svg>