<svg t="1649063398554" class="icon" viewBox="0 0 1032 1024" version="1.1" xmlns="http://www.w3.org/2000/svg" p-id="7595" width="200" height="200"><path d="M993.44576 314.24a26.24 26.24 0 0 1-13.44 0L513.44576 99.2 46.88576 311.04A32 32 0 0 1 1.44576 295.68 32.64 32.64 0 0 1 20.00576 256L500.00576 34.56a39.04 39.04 0 0 1 26.88 0L1006.88576 256a32 32 0 0 1-13.44 64zM426.40576 968.96H33.44576a32 32 0 0 1-32-32v-51.2a117.76 117.76 0 0 1 44.16-92.8 292.48 292.48 0 0 1 184.32-64 289.92 289.92 0 0 1 183.68 64 118.4 118.4 0 0 1 44.8 92.8v51.2a32.64 32.64 0 0 1-32 32z m-360.96-64h328.96v-19.2a53.12 53.12 0 0 0-20.48-42.24 227.2 227.2 0 0 0-144-49.28 232.96 232.96 0 0 0-144.64 48.64 54.4 54.4 0 0 0-19.84 42.88zM229.92576 663.04a141.44 141.44 0 1 1 140.8-140.8 140.8 140.8 0 0 1-140.8 140.8z m0-215.04a77.44 77.44 0 1 0 76.8 77.44A77.44 77.44 0 0 0 229.92576 448zM993.44576 968.96H600.48576a32.64 32.64 0 0 1-32-32v-51.2a118.4 118.4 0 0 1 44.8-92.8 301.44 301.44 0 0 1 368 0 117.76 117.76 0 0 1 44.16 92.8v51.2a32 32 0 0 1-32 32z m-360.96-64H961.44576v-19.2a54.4 54.4 0 0 0-19.84-42.88 238.72 238.72 0 0 0-288.64 0 55.04 55.04 0 0 0-20.48 42.88zM796.96576 663.04a141.44 141.44 0 1 1 141.44-140.8 140.8 140.8 0 0 1-141.44 140.8z m0-218.24a77.44 77.44 0 1 0 77.44 77.44A77.44 77.44 0 0 0 796.96576 448z" p-id="7596"></path></svg>