<svg t="1649063688857" class="icon" viewBox="0 0 1024 1024" version="1.1" xmlns="http://www.w3.org/2000/svg" p-id="9932" width="200" height="200"><path d="M813.312 73.142857l-308.553143 309.906286a96.950857 96.950857 0 0 0 2.194286 138.971428l1.462857 1.389715a100.352 100.352 0 0 0 139.922286-2.194286L950.857143 217.344V877.714286a73.142857 73.142857 0 0 1-73.142857 73.142857H146.285714a73.142857 73.142857 0 0 1-73.142857-73.142857V146.285714a73.142857 73.142857 0 0 1 73.142857-73.142857h667.026286z m-266.203429 361.691429l336.164572-336.201143a36.571429 36.571429 0 1 1 51.748571 51.712l-336.201143 336.164571a36.571429 36.571429 0 1 1-51.712-51.712zM256 768a36.571429 36.571429 0 0 0 0 73.142857h512a36.571429 36.571429 0 0 0 0-73.142857H256z m219.428571-182.857143a36.571429 36.571429 0 0 0 0 73.142857h292.571429a36.571429 36.571429 0 0 0 0-73.142857h-292.571429z m-204.690285-30.646857v92.452571H364.982857v-92.452571H270.738286zM174.08 356.388571h88.246857c0-10.825143 1.206857-20.918857 3.620572-30.354285 2.377143-9.362286 6.107429-17.554286 11.081142-24.576 5.010286-7.021714 11.410286-12.617143 19.236572-16.822857 7.789714-4.205714 17.078857-6.290286 27.904-6.290286 16.018286 0 28.525714 4.388571 37.522286 13.165714 8.996571 8.850286 13.531429 22.454857 13.531428 40.850286 0.365714 10.825143-1.536 19.821714-5.741714 27.026286a80.603429 80.603429 0 0 1-16.493714 19.821714 360.411429 360.411429 0 0 1-22.198858 17.993143 151.076571 151.076571 0 0 0-22.820571 21.321143c-7.204571 8.192-13.531429 18.102857-18.907429 29.696-5.412571 11.629714-8.704 26.038857-9.910857 43.227428v27.026286h81.042286v-22.820572c1.609143-11.995429 5.485714-22.016 11.702857-29.988571 6.217143-8.045714 13.312-15.140571 21.321143-21.321143 8.009143-6.217143 16.493714-12.434286 25.490286-18.651428a116.955429 116.955429 0 0 0 43.227428-54.345143c5.010286-12.361143 7.533714-28.16 7.533715-47.396572 0-11.593143-2.523429-24.137143-7.533715-37.522285a105.142857 105.142857 0 0 0-24.868571-37.522286c-11.629714-11.593143-26.953143-21.284571-45.970286-29.110857-19.017143-7.789714-42.715429-11.702857-71.131428-11.702857-22.016 0-41.910857 3.693714-59.721143 11.117714a132.534857 132.534857 0 0 0-45.641143 30.902857 140.982857 140.982857 0 0 0-29.403429 46.811429 171.556571 171.556571 0 0 0-11.117714 59.465142z" p-id="9933"></path></svg>