<?xml version="1.0" standalone="no"?><!DOCTYPE svg PUBLIC "-//W3C//DTD SVG 1.1//EN" "http://www.w3.org/Graphics/SVG/1.1/DTD/svg11.dtd"><svg t="1589888491061" class="icon" viewBox="0 0 1024 1024" version="1.1" xmlns="http://www.w3.org/2000/svg" p-id="1766" xmlns:xlink="http://www.w3.org/1999/xlink" width="16" height="16"><defs><style type="text/css"></style></defs><path d="M512 512m-512 0a512 512 0 1 0 1024 0 512 512 0 1 0-1024 0Z" fill="#F7BF33" p-id="1767"></path><path d="M563.264 575.552a22.56 22.56 0 0 1-13.952-4.832l-41.6-32.608h-36.16a22.4 22.4 0 0 1-20.704-13.696l-21.696-51.04-20.448 50.656a22.4 22.4 0 0 1-20.896 14.08h-173.28a22.4 22.4 0 1 1 0-44.8h157.984l35.2-87.008a22.4 22.4 0 0 1 20.704-14.08 22.4 22.4 0 0 1 20.96 13.664l37.184 87.392h29.248a22.592 22.592 0 0 1 13.984 4.832l24.16 19.008 30.528-73.6a22.56 22.56 0 0 1 38.88-4.832l40.768 54.592h108.192a22.4 22.4 0 1 1 0 44.8h-119.616a22.56 22.56 0 0 1-18.08-9.088l-23.84-32-26.72 64.48a22.4 22.4 0 0 1-20.8 14.08z" fill="#FFFFFF" p-id="1768"></path><path d="M523.584 736.256l203.776-203.648 32 32-203.776 203.648z m-273.76-282.144a166.656 166.656 0 0 1 281.248-149.568l41.248 38.208-30.688 33.024-41.856-38.784a121.44 121.44 0 0 0-205.696 108.608z" fill="#FFFFFF" p-id="1769"></path><path d="M347.616 592.576l32-32 191.616 191.456-32 32z m411.36-28.128l-32-32 24.416-24.384a121.6 121.6 0 0 0-171.936-171.776l-24.416 24.384-32-32 24.416-24.384a166.592 166.592 0 0 1 235.712 235.488z" fill="#FFFFFF" p-id="1770"></path></svg>