<svg t="1649062078610" class="icon" viewBox="0 0 1024 1024" version="1.1" xmlns="http://www.w3.org/2000/svg" p-id="3268" width="200" height="200"><path d="M904.741259 290.582455H821.030502a180.240965 180.240965 0 0 1-172.132725-159.710009v-74.63548a53.955749 53.955749 0 0 0-54.625237-53.286261H157.36983A90.55441 90.55441 0 0 0 64.335836 90.504818v845.885303a89.959309 89.959309 0 0 0 92.265323 87.578909h710.202464a90.504818 90.504818 0 0 0 92.562873-87.578909v-592.620588a53.930953 53.930953 0 0 0-54.625237-53.187078zM199.522759 161.272147a57.923083 57.923083 0 0 1 57.923083-57.923084h237.494561a57.923083 57.923083 0 0 1 57.923083 57.923084 57.923083 57.923083 0 0 1-57.923083 57.923083H257.52023a57.923083 57.923083 0 0 1-57.997471-57.923083z m582.702252 738.916047H257.52023a57.923083 57.923083 0 0 1-57.997471-57.8239 57.923083 57.923083 0 0 1 57.923083-57.923083h524.779169a57.923083 57.923083 0 1 1 0 115.846166z m58.022267-284.780228a57.923083 57.923083 0 0 1-58.022267 57.848696H257.52023a57.923083 57.923083 0 0 1-57.997471-57.848696 57.923083 57.923083 0 0 1 57.997471-57.997471h524.704781a57.923083 57.923083 0 0 1 58.022267 57.997471z m0-227.030716a57.923083 57.923083 0 0 1-58.022267 57.848696H257.52023a57.923083 57.923083 0 0 1-57.997471-57.923084 57.923083 57.923083 0 0 1 57.997471-57.923083h524.704781a57.923083 57.923083 0 0 1 58.022267 57.923083z" p-id="3269"></path><path d="M829.9818 247.760038h96.530207a32.234593 32.234593 0 0 0 33.201631-31.044392 32.01143 32.01143 0 0 0-10.31507-24.671861L750.387152 8.926503a33.499181 33.499181 0 0 0-47.33526 1.810096 33.62316 33.62316 0 0 0-8.901706 21.572381v92.141344a138.435178 138.435178 0 0 0 135.831614 123.309714z" p-id="3270"></path></svg>