<svg t="1649063588839" class="icon" viewBox="0 0 1210 1024" version="1.1" xmlns="http://www.w3.org/2000/svg" p-id="9615" width="200" height="200"><path d="M968.145455 128.512v91.042909h94.580363l-36.491636-34.536727L968.145455 128.512zM893.672727 74.472727H186.181818A111.709091 111.709091 0 0 0 74.472727 186.181818v651.636364A111.709091 111.709091 0 0 0 186.181818 949.527273h837.818182a111.709091 111.709091 0 0 0 111.709091-111.709091V294.027636h-242.036364V74.472727zM186.181818 0h756.689455l135.307636 131.677091L1210.181818 256.418909V837.818182a186.181818 186.181818 0 0 1-186.181818 186.181818H186.181818a186.181818 186.181818 0 0 1-186.181818-186.181818V186.181818a186.181818 186.181818 0 0 1 186.181818-186.181818z m46.545455 386.327273a37.236364 37.236364 0 1 1 0-74.472728h598.155636a37.236364 37.236364 0 1 1 0 74.472728H232.727273z m0 186.181818a37.236364 37.236364 0 1 1 0-74.472727h471.458909a37.236364 37.236364 0 1 1 0 74.472727H232.727273z m0 186.181818a37.236364 37.236364 0 1 1 0-74.472727h471.458909a37.236364 37.236364 0 1 1 0 74.472727H232.727273z m830.696727-227.560727l7.121455 16.616727c-78.056727 71.773091-142.010182 172.730182-162.117819 224.395636L791.272727 652.893091l30.021818-24.157091 67.863273 53.201455c27.787636-32.954182 89.367273-98.722909 174.266182-150.807273z" p-id="9616"></path></svg>