<svg t="1649063561825" class="icon" viewBox="0 0 1024 1024" version="1.1" xmlns="http://www.w3.org/2000/svg" p-id="8739" width="200" height="200"><path d="M512 128V0h288a192 192 0 0 1 192 192v640a192 192 0 0 1-192 192H224a192 192 0 0 1-192-192V480h128v352a64 64 0 0 0 64 64h576a64 64 0 0 0 64-64V192a64 64 0 0 0-64-64h-288zM160 128V32a32 32 0 0 1 32-32h64a32 32 0 0 1 32 32v96h96a32 32 0 0 1 32 32v64a32 32 0 0 1-32 32H288v96a32 32 0 0 1-32 32H192a32 32 0 0 1-32-32V256H64a32 32 0 0 1-32-32V160a32 32 0 0 1 32-32h96z m224 512h256a32 32 0 0 1 0 64h-256a32 32 0 0 1 0-64z m0-192h256a32 32 0 0 1 0 64h-256a32 32 0 0 1 0-64z" p-id="8740"></path></svg>