<svg t="1649063126705" class="icon" viewBox="0 0 1024 1024" version="1.1" xmlns="http://www.w3.org/2000/svg" p-id="6483" width="200" height="200"><path d="M267.98 411.136l253.8-66.714c20.018-5.273 40.55 6.708 45.772 26.727 5.274 20.019-6.707 40.499-26.726 45.773l-253.799 66.713c-20.019 5.274-40.499-6.707-45.773-26.726-5.273-20.02 6.708-40.5 26.727-45.773zM315.648 592.435l253.798-66.713c20.02-5.274 40.55 6.707 45.773 26.726 5.274 20.02-6.707 40.55-26.726 45.773l-253.799 66.713c-20.019 5.274-40.55-6.707-45.772-26.726-5.274-20.02 6.707-40.5 26.726-45.773zM505.549 158.413c3.584 7.168 8.038 14.131 13.414 20.838 5.632 6.963 12.032 12.8 18.995 17.255 6.81 4.454 14.03 6.758 21.556 6.758 3.02 0 6.041-0.41 9.01-1.126l146.33-35.943-7.833-31.59c-1.178-5.018-3.277-10.394-6.451-16.589-3.482-6.707-9.268-13.568-17.613-20.992-7.22-6.4-17.152-13.875-29.85-22.477-12.083-8.192-28.16-18.278-48.537-30.515-18.381-10.445-33.536-18.586-45.415-24.422-12.339-6.144-22.477-10.65-30.413-13.62-9.164-3.43-17.1-5.324-24.268-5.785L499.712 0c-5.274 0-10.496 0.614-18.074 2.509l-16.64 4.096 33.178 133.325c1.28 5.068 3.635 10.905 7.373 18.483z m11.213-120.371c7.116 2.662 16.128 6.707 27.136 12.185 11.52 5.683 26.06 13.517 43.417 23.347 19.354 11.623 34.919 21.35 46.592 29.287 11.213 7.526 19.968 14.029 26.317 19.712 6.963 6.144 9.318 9.83 9.882 11.008 1.69 3.328 2.662 5.785 3.174 7.526l-113.05 27.75c-0.307 0.052-0.563 0.103-0.768 0.103l-2.867-1.178c-4.045-2.61-7.68-5.939-11.008-10.035-3.737-4.71-6.912-9.625-9.42-14.643-3.38-6.758-4.506-10.138-4.865-11.52l-23.859-96.41c2.355 0.512 5.479 1.434 9.319 2.868z" p-id="6484"></path><path d="M677.325 853.043L322.253 978.33c-8.243 1.996-18.74 1.536-30.771-1.434-13.108-3.174-26.215-8.704-38.912-16.282-12.596-7.526-24.116-17.05-34.1-28.313-9.472-10.547-15.616-22.016-18.841-35.123L40.14 257.28c-2.765-10.906-3.277-23.245-1.587-36.557 1.843-13.67 5.785-27.033 11.622-39.629 5.888-12.595 13.466-23.705 22.426-33.177 8.09-8.5 16.998-13.875 27.29-16.384L418.047 53.35l25.242 101.12c3.481 14.03 9.113 28.11 16.537 41.78 7.68 14.182 17.613 26.93 29.389 37.888 12.134 11.315 26.368 19.865 42.189 25.292 16.589 5.735 34.816 6.247 53.657 1.588l111.36-27.341 72.807 240.845 19.763-62.362-67.584-219.904-144.538 35.482c-12.339 3.123-23.859 2.867-34.355-0.768-11.264-3.84-21.299-9.882-29.952-17.972a111.53 111.53 0 0 1-22.63-29.132c-6.093-11.213-10.599-22.528-13.466-33.741L443.034 11.93 91.648 98.253c-16.589 4.147-31.386 12.851-43.878 26.06-11.572 12.135-21.146 26.317-28.672 42.292a172.884 172.884 0 0 0-14.49 49.664c-2.253 17.664-1.485 34.253 2.304 49.357l159.54 639.897c4.556 18.279 13.465 35.021 26.52 49.613a181.353 181.353 0 0 0 42.036 34.918c15.667 9.37 31.898 16.128 48.282 20.224 9.83 2.407 19.2 3.636 27.852 3.636 6.759 0 13.312-0.82 19.303-2.253l353.28-126.618-6.4-32zM848.077 457.42l104.09 35.073-100.199 325.53-104.09-35.073 100.199-325.53M744.55 877.21l58.317 19.61-45.977 44.8-12.34-64.41m135.63-563.712c-14.644 0-28.468 10.393-33.486 26.572l172.084 57.908-0.154 0.563c0.051-0.205 0.102-0.41 0.205-0.563 6.093-19.764-3.43-40.704-21.248-46.695L890.01 315.085a31.099 31.099 0 0 0-9.83-1.587z m-33.434 26.572l-16.538 53.71 172.083 57.906 16.384-53.145c-5.12 15.82-18.841 26.01-33.229 26.01-3.276 0-6.604-0.513-9.881-1.639l-107.571-36.198c-17.87-5.99-27.341-26.88-21.248-46.644z m-22.068 71.63L703.334 805.733l172.084 57.908L996.71 469.606 824.678 411.7zM697.856 823.653l36.403 190.157 135.68-132.25-172.083-57.907z" p-id="6485"></path></svg>