<?xml version="1.0" standalone="no"?><!DOCTYPE svg PUBLIC "-//W3C//DTD SVG 1.1//EN" "http://www.w3.org/Graphics/SVG/1.1/DTD/svg11.dtd"><svg t="1589888397413" class="icon" viewBox="0 0 1024 1024" version="1.1" xmlns="http://www.w3.org/2000/svg" p-id="1220" xmlns:xlink="http://www.w3.org/1999/xlink" width="16" height="16"><defs><style type="text/css"></style></defs><path d="M512 512m-512 0a512 512 0 1 0 1024 0 512 512 0 1 0-1024 0Z" fill="#00CC99" p-id="1221"></path><path d="M542.499222 568.901534V360.755723c0-14.45299-15.477217-26.288509-34.709935-26.288508-19.118915 0-34.709936 11.721716-34.709936 26.288508v208.259614c-30.04401 13.314959-51.097577 43.472772-51.097577 78.524116 0 47.342076 38.351634 85.807513 85.807513 85.807513 47.342076 0 85.807513-38.351634 85.807512-85.807513 0-35.165148-20.939764-65.322961-51.097577-78.637919z m80.686375-43.814181V298.505446c0-25.60569-13.201156-50.300956-36.075573-67.712825-21.394977-16.273839-49.618137-25.150478-79.206934-25.150478-29.702601 0-57.811958 8.876639-79.206935 25.150478-22.98822 17.411869-36.189375 42.107135-36.189376 67.712825v226.581907c-33.685708 31.751056-52.804623 75.67904-52.804623 122.338297 0 44.952212 17.525672 87.17315 49.276728 118.924206s73.971994 49.276728 118.924206 49.276728 87.17315-17.525672 118.924205-49.276728c31.751056-31.751056 49.276728-73.971994 49.276728-118.924206-0.113803-46.545455-19.232718-90.587242-52.918426-122.338297zM507.789287 770.332963c-67.826628 0-122.907313-55.194488-122.907313-122.907313 0-36.758391 16.273839-71.24072 44.610802-94.684152l8.193821-6.828184V298.505446c0-25.833296 32.092465-47.683485 70.216493-47.683486 38.010224 0 70.216493 21.850189 70.216492 47.683486v247.407868l8.193821 6.828184c28.336964 23.443432 44.610802 58.039564 44.610802 94.684152-0.113803 67.826628-55.308291 122.907313-123.134918 122.907313z m137.587908-447.81507h27.08513c6.145366 0 11.152701-5.007335 11.152701-11.152701s-5.007335-11.152701-11.152701-11.1527h-27.08513c-6.145366 0-11.152701 5.007335-11.152701 11.1527s5.007335 11.152701 11.152701 11.152701z m27.08513 11.949322h-27.08513c-6.145366 0-11.152701 5.007335-11.152701 11.152701s5.007335 11.152701 11.152701 11.1527h27.08513c6.145366 0 11.152701-5.007335 11.152701-11.1527s-5.007335-11.152701-11.152701-11.152701z m0 34.14092h-27.08513c-6.145366 0-11.152701 5.007335-11.152701 11.152701s5.007335 11.152701 11.152701 11.1527h27.08513c6.145366 0 11.152701-5.007335 11.152701-11.1527s-5.007335-11.152701-11.152701-11.152701z m0 34.254723h-27.08513c-6.145366 0-11.152701 5.007335-11.152701 11.152701s5.007335 11.152701 11.152701 11.152701h27.08513c6.145366 0 11.152701-5.007335 11.152701-11.152701s-5.007335-11.152701-11.152701-11.152701z m0 34.140921h-27.08513c-6.145366 0-11.152701 5.007335-11.152701 11.1527s5.007335 11.152701 11.152701 11.152701h27.08513c6.145366 0 11.152701-5.007335 11.152701-11.152701s-5.007335-11.152701-11.152701-11.1527z m0 34.254723h-27.08513c-6.145366 0-11.152701 5.007335-11.152701 11.1527s5.007335 11.152701 11.152701 11.152701h27.08513c6.145366 0 11.152701-5.007335 11.152701-11.152701s-5.007335-11.152701-11.152701-11.1527z" fill="#FFFFFF" p-id="1222"></path></svg>